<svg xmlns="http://www.w3.org/2000/svg" xmlns:xlink="http://www.w3.org/1999/xlink" version="1.1" x="0px" y="0px" viewBox="0 0 96 120" enable-background="new 0 0 96 96" xml:space="preserve">
    <path d="M37.65,11.501l5.09,1.506l-6.948,23.476c-1.075,0.599-2.119,1.272-3.097,1.995C27.44,42.2,23.714,47.376,21.92,53.446  l-0.213,0.719l19.631,5.809l-8.969,30.314l1.438,0.426l8.969-30.314l19.632,5.809l0.213-0.72c1.794-6.07,1.484-12.44-0.889-18.409  c-0.438-1.161-0.949-2.294-1.522-3.372l6.947-23.475l5.086,1.505l2.054-6.932L39.703,4.568L37.65,11.501z"/>
    <text x="0" y="111" fill="#000000" font-size="5px" font-weight="bold" font-family="'Helvetica Neue', Helvetica, Arial-Unicode, Arial, Sans-serif">Created by glyph.faisalovers</text>
    <text x="0" y="116" fill="#000000" font-size="5px" font-weight="bold" font-family="'Helvetica Neue', Helvetica, Arial-Unicode, Arial, Sans-serif">from the Noun Project</text>
</svg>