<svg xmlns="http://www.w3.org/2000/svg" xmlns:xlink="http://www.w3.org/1999/xlink" version="1.1" x="0px" y="0px" viewBox="0 0 96 120" enable-background="new 0 0 96 96" xml:space="preserve">
    <path d="M15.846,90.945l17.252-23.413c1.502,1.158,3.521,1.752,6.046,1.752c9.264,0,22.359-7.825,22.913-8.158L61.4,59.783  c-1.744,0.671-3.503,1.011-5.229,1.011c-2.021,0-3.663-0.47-4.779-0.924c16.483-4.726,24.051-16.425,24.376-16.939l1.722-2.72  l-2.747,1.679c-1.768,1.081-4.16,1.628-7.11,1.628c-1.275,0-2.458-0.106-3.397-0.229c21.888-12.178,16.72-29.421,16.664-29.599  l-1.677-5.283l0.213,5.539c0.202,5.248-5.716,10.022-8.42,11.922l2.467-21.379l-1.067,0.288  c-12.61,3.403-16.941,13.045-19.529,18.807c-1.008,2.245-1.879,4.183-2.706,4.501c-0.22,0.085-0.335,0.183-0.576-0.094  c-1.09-1.252-0.81-6.653-0.376-9.763l0.22-1.58l-1.357,0.838c-9.01,5.565-10.273,24.689-10.434,28.369  c-0.677,0.095-1.177-0.073-1.584-0.545c-1.475-1.711-1.13-6.557-0.873-8.279l0.448-3.001l-1.795,2.447  C24.449,49.3,31.455,65.67,31.527,65.834l0.069,0.124c0.127,0.185,0.272,0.352,0.414,0.521L14.638,90.055L15.846,90.945z"/>
    <rect x="23.377" y="89.75" width="14.167" height="1.5"/><rect x="51.71" y="89.75" width="26.65" height="1.5"/>
    <text x="0" y="111" fill="#000000" font-size="5px" font-weight="bold" font-family="'Helvetica Neue', Helvetica, Arial-Unicode, Arial, Sans-serif">Created by glyph.faisalovers</text>
    <text x="0" y="116" fill="#000000" font-size="5px" font-weight="bold" font-family="'Helvetica Neue', Helvetica, Arial-Unicode, Arial, Sans-serif">from the Noun Project</text>
</svg>