<svg xmlns="http://www.w3.org/2000/svg" xmlns:xlink="http://www.w3.org/1999/xlink" version="1.1" x="0px" y="0px" viewBox="0 0 96 120" enable-background="new 0 0 96 96" xml:space="preserve">
    <path d="M6.269,48.75C6.668,71.175,24.825,89.333,47.25,89.731v-5.388h1.5v5.388c22.425-0.398,40.582-18.556,40.981-40.981h-5.388  v-1.5h5.388C89.332,24.825,71.175,6.667,48.75,6.269v5.388h-1.5V6.269C24.825,6.667,6.668,24.825,6.269,47.25h5.388v1.5H6.269z   M47.25,44.498V21.162h1.5v23.336c1.374,0.294,2.456,1.377,2.75,2.752h14.23v1.5H51.5c-0.346,1.617-1.782,2.834-3.5,2.834  c-1.977,0-3.584-1.608-3.584-3.584C44.416,46.281,45.633,44.844,47.25,44.498z"/>
    <circle cx="48" cy="48" r="2.084"/>
    <text x="0" y="111" fill="#000000" font-size="5px" font-weight="bold" font-family="'Helvetica Neue', Helvetica, Arial-Unicode, Arial, Sans-serif">Created by glyph.faisalovers</text>
    <text x="0" y="116" fill="#000000" font-size="5px" font-weight="bold" font-family="'Helvetica Neue', Helvetica, Arial-Unicode, Arial, Sans-serif">from the Noun Project</text>
</svg>