<svg xmlns="http://www.w3.org/2000/svg">
  <defs>
    <symbol id="icon-pin" viewBox="0 0 96 120">
      <path d="M37.65,11.501l5.09,1.506l-6.948,23.476c-1.075,0.599-2.119,1.272-3.097,1.995C27.44,42.2,23.714,47.376,21.92,53.446  l-0.213,0.719l19.631,5.809l-8.969,30.314l1.438,0.426l8.969-30.314l19.632,5.809l0.213-0.72c1.794-6.07,1.484-12.44-0.889-18.409  c-0.438-1.161-0.949-2.294-1.522-3.372l6.947-23.475l5.086,1.505l2.054-6.932L39.703,4.568L37.65,11.501z"/>
      <!-- <text x="0" y="111" fill="#000000" font-size="5px" font-weight="bold" font-family="'Helvetica Neue', Helvetica, Arial-Unicode, Arial, Sans-serif">Created by glyph.faisalovers</text>
      <text x="0" y="116" fill="#000000" font-size="5px" font-weight="bold" font-family="'Helvetica Neue', Helvetica, Arial-Unicode, Arial, Sans-serif">from the Noun Project</text> -->
    </symbol>  
    <symbol id="icon-profile" viewBox="0 0 96 120">
      <path d="M6.844,65.861c-0.198,2.066,0.128,3.585,0.972,4.514c0.995,1.095,2.829,1.418,5.356,0.979  c0.221-0.038,0.438-0.073,0.669-0.123c0.317-0.068,0.572-0.177,0.796-0.31c0.341-0.201,0.59-0.471,0.737-0.84  c0.647-1.619-0.469-4.533-1.697-6.921c-0.582-1.132-1.189-2.146-1.646-2.847c-0.028-0.001-0.056-0.001-0.083-0.001  c-0.053,0-0.107,0.005-0.16,0.007C9.71,60.393,7.229,61.869,6.844,65.861z"/>
      <path d="M11.009,43.891c0.304,2.065,1.22,8.366,2.163,15.432c0.843,1.264,5.005,7.788,3.596,11.316  c-0.253,0.635-0.8,1.423-1.95,1.86c0.468,4.154,0.808,7.777,0.877,10.036c0.462-0.014,1.117-0.027,1.938-0.027  c5.622,0,19.444,0.681,29.618,6.67V56.662c-2.574-1.712-20.246-13.149-32.645-13.149C13.31,43.513,12.103,43.64,11.009,43.891z   M19.565,69.593l-0.025-1.5c0.122-0.002,0.247-0.003,0.371-0.003c9.528,0,21.691,6.296,22.212,6.567l-0.695,1.33  c-0.124-0.065-12.359-6.397-21.521-6.397C19.792,69.59,19.68,69.591,19.565,69.593z M41.403,82.369  c-0.093-0.053-9.497-5.326-21.096-3.947l-0.176-1.49c12.109-1.427,21.617,3.907,22.016,4.135L41.403,82.369z M41.227,69.354  c-0.059-0.063-6.108-6.331-23.457-9.05l0.232-1.482c17.937,2.811,24.071,9.238,24.323,9.511L41.227,69.354z M17.109,50.013  c15.565,1.172,25.995,9.971,26.432,10.345l-0.976,1.139c-0.104-0.088-10.512-8.854-25.569-9.987L17.109,50.013z"/>
      <path d="M89.156,65.861c-0.385-3.992-2.866-5.469-4.943-5.541c-0.053-0.002-0.107-0.007-0.16-0.007c-0.027,0-0.055,0-0.083,0.001  c-0.457,0.7-1.064,1.715-1.646,2.847c-1.229,2.388-2.345,5.302-1.697,6.921c0.147,0.369,0.396,0.639,0.737,0.84  c0.224,0.132,0.479,0.24,0.797,0.31c0.233,0.051,0.445,0.075,0.669,0.114c0.721,0.125,1.404,0.208,2.007,0.208  c1.512,0,2.638-0.396,3.349-1.178C89.028,69.446,89.354,67.928,89.156,65.861z"/>
      <path d="M67.016,68.039c1.729-0.718,5.233-2.035,8.883-2.61l0.819-8.331c-5.375,0.661-8.645,3.413-9.44,4.156L67.016,68.039z"/>
      <path d="M84.991,43.891c-1.094-0.251-2.301-0.378-3.597-0.378c-12.399,0-30.07,11.438-32.645,13.149v32.516  c10.174-5.989,23.996-6.67,29.618-6.67c0.82,0,1.476,0.014,1.938,0.027c0.069-2.259,0.409-5.883,0.877-10.036  c-1.15-0.438-1.697-1.226-1.95-1.86c-1.409-3.528,2.753-10.053,3.596-11.316C83.771,52.257,84.688,45.956,84.991,43.891z   M76.04,75.846c-0.132-0.003-0.267-0.004-0.4-0.004c-8.756,0-21.848,5.065-21.98,5.118l-0.545-1.398  c0.563-0.22,13.912-5.426,22.953-5.216L76.04,75.846z M53.507,68.196c0.19-0.112,4.728-2.747,10.607-3.759l0.254,1.479  c-5.612,0.966-10.058,3.548-10.102,3.573L53.507,68.196z M77.275,66.75l-0.589,0.079c-5.01,0.673-10.098,3.03-10.148,3.054  l-1.114,0.52l0.377-9.783l0.189-0.204c0.166-0.177,4.133-4.346,11.507-4.901l0.891-0.067L77.275,66.75z M53.766,61.574l-0.758-1.295  c0.657-0.385,16.21-9.428,26.623-10.267l0.121,1.496C69.677,52.319,53.924,61.481,53.766,61.574z"/>
      <path d="M62.574,20.823C62.574,12.787,56.036,6.25,48,6.25s-14.574,6.537-14.574,14.573c0,8.037,6.538,14.575,14.574,14.575  S62.574,28.86,62.574,20.823z"/>
      <path d="M23.587,43.446C34.481,46.56,45.648,53.785,48,55.356c2.352-1.571,13.519-8.797,24.413-11.91  c-6.437-3.521-15.995-1.327-16.099-1.303l-0.693,0.164l-1.888-6.484c-1.784,0.685-3.712,1.075-5.733,1.075s-3.949-0.391-5.733-1.075  l-1.888,6.484l-0.693-0.164C39.583,42.119,30.023,39.926,23.587,43.446z"/>
      <!-- <text x="0" y="111" fill="#000000" font-size="5px" font-weight="bold" font-family="'Helvetica Neue', Helvetica, Arial-Unicode, Arial, Sans-serif">Created by glyph.faisalovers</text>
      <text x="0" y="116" fill="#000000" font-size="5px" font-weight="bold" font-family="'Helvetica Neue', Helvetica, Arial-Unicode, Arial, Sans-serif">from the Noun Project</text> -->
    </symbol>   
    <symbol id="icon-books" viewBox="0 0 96 120">
      <rect x="39.287" y="23.584" width="15.017" height="55.87"/>
      <polygon points="54.304,16.546 39.287,16.546 39.287,17.461 47.545,17.461 47.545,21.169 39.287,21.169 39.287,22.084   54.304,22.084 "/>
      <polygon points="72.508,28.475 70.566,23.287 56.502,28.55 56.823,29.407 64.558,26.512 65.856,29.987 58.122,32.88 58.443,33.738   "/>
      <rect x="50.711" y="47.05" transform="matrix(-0.3505 -0.9366 0.9366 -0.3505 49.1747 143.2224)" width="47.082" height="15.019"/>
      <rect x="60.283" y="26.58" transform="matrix(-0.3501 -0.9367 0.9367 -0.3501 53.8067 97.2483)" width="0.708" height="6.759"/>
      <rect x="39.287" y="18.961" width="6.758" height="0.708"/>
      <rect x="22.769" y="32.371" width="15.017" height="47.083"/>
      <rect x="22.769" y="27.748" width="6.758" height="0.708"/>
      <polygon points="22.769,26.248 31.026,26.248 31.026,29.956 22.769,29.956 22.769,30.871 37.785,30.871 37.785,25.333   22.769,25.333 "/>
      <rect x="6.251" y="18.961" width="6.758" height="0.708"/>
      <polygon points="6.251,17.461 14.509,17.461 14.509,21.169 6.251,21.169 6.251,22.084 21.269,22.084 21.269,16.546 6.251,16.546 "/>
      <polygon points="21.269,32.371 21.269,29.956 21.269,26.248 21.269,23.833 21.269,23.584 6.251,23.584 6.251,79.454 21.269,79.454   "/>
      <!-- <text x="0" y="111" fill="#000000" font-size="5px" font-weight="bold" font-family="'Helvetica Neue', Helvetica, Arial-Unicode, Arial, Sans-serif">Created by glyph.faisalovers</text>
      <text x="0" y="116" fill="#000000" font-size="5px" font-weight="bold" font-family="'Helvetica Neue', Helvetica, Arial-Unicode, Arial, Sans-serif">from the Noun Project</text> -->
    </symbol>   
    <symbol id="icon-clock" viewBox="0 0 96 120">
      <path d="M6.269,48.75C6.668,71.175,24.825,89.333,47.25,89.731v-5.388h1.5v5.388c22.425-0.398,40.582-18.556,40.981-40.981h-5.388  v-1.5h5.388C89.332,24.825,71.175,6.667,48.75,6.269v5.388h-1.5V6.269C24.825,6.667,6.668,24.825,6.269,47.25h5.388v1.5H6.269z   M47.25,44.498V21.162h1.5v23.336c1.374,0.294,2.456,1.377,2.75,2.752h14.23v1.5H51.5c-0.346,1.617-1.782,2.834-3.5,2.834  c-1.977,0-3.584-1.608-3.584-3.584C44.416,46.281,45.633,44.844,47.25,44.498z"/>
      <circle cx="48" cy="48" r="2.084"/>
      <!-- <text x="0" y="111" fill="#000000" font-size="5px" font-weight="bold" font-family="'Helvetica Neue', Helvetica, Arial-Unicode, Arial, Sans-serif">Created by glyph.faisalovers</text>
      <text x="0" y="116" fill="#000000" font-size="5px" font-weight="bold" font-family="'Helvetica Neue', Helvetica, Arial-Unicode, Arial, Sans-serif">from the Noun Project</text> -->
    </symbol>
    <symbol id="icon-quill" viewBox="0 0 96 120">
      <path d="M15.846,90.945l17.252-23.413c1.502,1.158,3.521,1.752,6.046,1.752c9.264,0,22.359-7.825,22.913-8.158L61.4,59.783  c-1.744,0.671-3.503,1.011-5.229,1.011c-2.021,0-3.663-0.47-4.779-0.924c16.483-4.726,24.051-16.425,24.376-16.939l1.722-2.72  l-2.747,1.679c-1.768,1.081-4.16,1.628-7.11,1.628c-1.275,0-2.458-0.106-3.397-0.229c21.888-12.178,16.72-29.421,16.664-29.599  l-1.677-5.283l0.213,5.539c0.202,5.248-5.716,10.022-8.42,11.922l2.467-21.379l-1.067,0.288  c-12.61,3.403-16.941,13.045-19.529,18.807c-1.008,2.245-1.879,4.183-2.706,4.501c-0.22,0.085-0.335,0.183-0.576-0.094  c-1.09-1.252-0.81-6.653-0.376-9.763l0.22-1.58l-1.357,0.838c-9.01,5.565-10.273,24.689-10.434,28.369  c-0.677,0.095-1.177-0.073-1.584-0.545c-1.475-1.711-1.13-6.557-0.873-8.279l0.448-3.001l-1.795,2.447  C24.449,49.3,31.455,65.67,31.527,65.834l0.069,0.124c0.127,0.185,0.272,0.352,0.414,0.521L14.638,90.055L15.846,90.945z"/>
      <rect x="23.377" y="89.75" width="14.167" height="1.5"/>
      <rect x="51.71" y="89.75" width="26.65" height="1.5"/>
      <!-- <text x="0" y="111" fill="#000000" font-size="5px" font-weight="bold" font-family="'Helvetica Neue', Helvetica, Arial-Unicode, Arial, Sans-serif">Created by glyph.faisalovers</text>
      <text x="0" y="116" fill="#000000" font-size="5px" font-weight="bold" font-family="'Helvetica Neue', Helvetica, Arial-Unicode, Arial, Sans-serif">from the Noun Project</text>     -->
    </symbol>
    <symbol id="icon-arrow" viewBox="0 0 308 686.25">
      <defs>
        <style type="text/css">
            .fil0 {fill:black}
        </style>
      </defs>
      <g>
        <polygon class="fil0" points="308,239 154,390 0,239 0,397 154,549 308,397 "/>
        <polygon class="fil0" points="308,0 154,151 0,0 0,158 154,310 308,158 "/>
      </g>
      <!-- <text x="0" y="564" fill="#000000" font-size="5px" font-weight="bold" font-family="'Helvetica Neue', Helvetica, Arial-Unicode, Arial, Sans-serif">Created by QOLBIN SALIIM</text>
      <text x="0" y="569" fill="#000000" font-size="5px" font-weight="bold" font-family="'Helvetica Neue', Helvetica, Arial-Unicode, Arial, Sans-serif">from the Noun Project</text>     -->
    </symbol>
    <symbol id="more-info" viewBox="0 0 100 125">
        <title>21</title>
        <g data-name="Group">
            <path data-name="Compound Path" d="M50,39.9A10.1,10.1,0,1,0,60.1,50,10.1,10.1,0,0,0,50,39.9Zm0,16.2A6.1,6.1,0,1,1,56.1,50,6.1,6.1,0,0,1,50,56.1Z"/>
            <path data-name="Compound Path" d="M50,13.6A10.1,10.1,0,1,0,60.1,23.7,10.1,10.1,0,0,0,50,13.6Zm0,16.2a6.1,6.1,0,1,1,6.1-6.1A6.1,6.1,0,0,1,50,29.8Z"/>
            <path data-name="Compound Path" d="M50,66.2A10.1,10.1,0,1,0,60.1,76.3,10.1,10.1,0,0,0,50,66.2Zm0,16.2a6.1,6.1,0,1,1,6.1-6.1A6.1,6.1,0,0,1,50,82.4Z"/>
        </g>
    </symbol>
    <symbol id="x" viewBox="0 0 100 125">
      <polygon points="87.316,75.934 61.387,50 87.316,24.068 75.934,12.685 50.003,38.616 24.072,12.685 12.689,24.068   38.621,50 12.684,75.934 24.066,87.316 50.003,61.381 75.934,87.316 "/>
    </symbol>
  </defs>
</svg>